<?xml version="1.0" encoding="utf-8"?>
<!-- Generator: Adobe Illustrator 17.0.0, SVG Export Plug-In . SVG Version: 6.00 Build 0)  -->
<!DOCTYPE svg PUBLIC "-//W3C//DTD SVG 1.1//EN" "http://www.w3.org/Graphics/SVG/1.1/DTD/svg11.dtd">
<svg version="1.1" id="Слой_1" xmlns="http://www.w3.org/2000/svg" xmlns:xlink="http://www.w3.org/1999/xlink" x="0px" y="0px"
	 width="21px" height="21px" viewBox="0 0 21 21" enable-background="new 0 0 21 21" xml:space="preserve">
<path fill="#32D7C0" d="M21,10.5C21,4.701,16.299,0,10.5,0C4.701,0,0,4.701,0,10.5S4.701,21,10.5,21C16.299,21,21,16.299,21,10.5z
	 M14.896,11.893c-0.138,0.142-0.361,0.142-0.499,0l-3.896-4.017l-3.898,4.016c-0.137,0.142-0.361,0.142-0.499,0
	c-0.138-0.142-0.138-0.372,0-0.514l4.148-4.272c0.137-0.142,0.361-0.142,0.499,0l4.146,4.272
	C15.035,11.521,15.035,11.751,14.896,11.893z"/>
</svg>
