<?xml version="1.0" encoding="utf-8"?>
<!-- Generator: Adobe Illustrator 17.0.0, SVG Export Plug-In . SVG Version: 6.00 Build 0)  -->
<!DOCTYPE svg PUBLIC "-//W3C//DTD SVG 1.1//EN" "http://www.w3.org/Graphics/SVG/1.1/DTD/svg11.dtd">
<svg version="1.1" id="Слой_1" xmlns="http://www.w3.org/2000/svg" xmlns:xlink="http://www.w3.org/1999/xlink" x="0px" y="0px"
	 width="21px" height="21px" viewBox="0 0 21 21" enable-background="new 0 0 21 21" xml:space="preserve">
<g>
	<path fill="#32D7C0" d="M10.5,0C4.701,0,0,4.701,0,10.5S4.701,21,10.5,21S21,16.299,21,10.5S16.299,0,10.5,0z M14.897,9.622
		l-4.146,4.272c-0.138,0.142-0.362,0.142-0.499,0L6.104,9.622c-0.138-0.142-0.138-0.372,0-0.514s0.362-0.142,0.499,0l3.898,4.016
		l3.896-4.017c0.138-0.142,0.361-0.142,0.499,0C15.035,9.249,15.035,9.479,14.897,9.622z"/>
	<path fill="#FFFFFF" d="M14.897,9.107c0.138,0.143,0.138,0.373,0,0.515l-4.146,4.272c-0.138,0.142-0.362,0.142-0.499,0L6.104,9.622
		c-0.138-0.142-0.138-0.372,0-0.514s0.362-0.142,0.499,0l3.898,4.016l3.896-4.017C14.535,8.965,14.758,8.965,14.897,9.107z"/>
</g>
</svg>
