<?xml version="1.0" encoding="utf-8"?>
<!-- Generator: Adobe Illustrator 17.0.0, SVG Export Plug-In . SVG Version: 6.00 Build 0)  -->
<!DOCTYPE svg PUBLIC "-//W3C//DTD SVG 1.1//EN" "http://www.w3.org/Graphics/SVG/1.1/DTD/svg11.dtd">
<svg version="1.1" id="Слой_1" xmlns="http://www.w3.org/2000/svg" xmlns:xlink="http://www.w3.org/1999/xlink" x="0px" y="0px"
	 width="49px" height="49px" viewBox="0 0 49 49" enable-background="new 0 0 49 49" xml:space="preserve">
<g display="none">
	<rect x="-5771.387" y="-4459.518" display="inline" width="5261.813" height="5538.058"/>
</g>
<g display="none">
	<g display="inline">
		<path d="M595.275,0C362.782,0,174.33,188.452,174.33,420.945S362.782,841.89,595.275,841.89s420.945-188.452,420.945-420.945
			S827.768,0,595.275,0z M595.275,815.581c-217.602,0-394.636-177.034-394.636-394.636S377.673,26.309,595.275,26.309
			s394.636,177.034,394.636,394.636S812.877,815.581,595.275,815.581z"/>
		<path d="M464.414,628.471l359.461-207.526L464.414,213.419V628.471z M490.723,258.986l280.534,161.959L490.723,582.904V258.986
			L490.723,258.986z"/>
	</g>
</g>
<g display="none">
	<g display="inline">
		<path d="M287.564,135.123c-130.467,135.913-150.698,350.489-47.619,508.238c89.267,136.649,254.04,208.026,414.999,186.558
			c206.105-27.467,356.777-202.58,361.276-408.632C1008.169,53.144,545.183-133.255,287.564,135.123z M609.903,822.632
			c-223.995,10.155-410.395-180.927-410.395-401.345c0-209.92,168.168-393.952,380.113-403.555
			C806.931,7.445,985.175,198.818,989.99,419.077C985.412,629.076,824.953,812.897,609.903,822.632z"/>
		<path d="M479.962,216.576c-4.657-5.025-25.283-4.209-25.283,2.526c0,134.176,0,268.326,0,402.502
			c0,8.34,20.837,4.446,24.546,2.289c116.233-67.088,232.467-134.176,348.7-201.238c2.315-1.342,2.157-4.025-0.079-5.314
			C711.877,350.437,595.906,283.506,479.962,216.576z M630.766,518.315c-49.935,28.808-99.869,57.643-149.804,86.452
			c0-122.969,0-245.937,0-368.879c49.961,28.835,99.922,57.669,149.883,86.504c18.311,10.576,173.877,86.715,173.824,97.975
			C804.643,431.969,649.577,507.449,630.766,518.315z"/>
	</g>
</g>
<g>
	<g>
		<path fill="#044F86" d="M24.5,0C10.968,0,0,10.968,0,24.5S10.968,49,24.5,49S49,38.032,49,24.5S38.032,0,24.5,0z M24.5,45.938
			c-11.821,0-21.438-9.616-21.438-21.438S12.678,3.062,24.5,3.062S45.938,12.678,45.938,24.5S36.321,45.938,24.5,45.938z"/>
		<path fill="#044F86" d="M16.884,36.578L37.806,24.5L16.884,12.422V36.578z M19.946,17.726L31.68,24.5l-11.734,6.774V17.726
			L19.946,17.726z"/>
	</g>
</g>
<g display="none">
	<g display="inline">
		<path d="M595.275,0C362.782,0,174.33,188.452,174.33,420.945S362.782,841.89,595.275,841.89s420.945-188.452,420.945-420.945
			S827.768,0,595.275,0z M595.275,828.735c-224.864,0-407.79-182.927-407.79-407.79s182.927-407.79,407.79-407.79
			s407.79,182.927,407.79,407.79S820.139,828.735,595.275,828.735z"/>
		<path d="M464.414,628.471l359.461-207.526L464.414,213.419V628.471z M477.568,236.203l319.997,184.742L477.568,605.687V236.203
			L477.568,236.203z"/>
	</g>
</g>
</svg>
