<?xml version="1.0" encoding="utf-8"?>
<!-- Generator: Adobe Illustrator 17.0.0, SVG Export Plug-In . SVG Version: 6.00 Build 0)  -->
<!DOCTYPE svg PUBLIC "-//W3C//DTD SVG 1.1//EN" "http://www.w3.org/Graphics/SVG/1.1/DTD/svg11.dtd">
<svg version="1.1" id="Слой_1" xmlns="http://www.w3.org/2000/svg" xmlns:xlink="http://www.w3.org/1999/xlink" x="0px" y="0px"
	 width="40px" height="40px" viewBox="80 80 40 40" enable-background="new 80 80 40 40" xml:space="preserve">
<g>
	<path fill="#666666" d="M100.018,90.133c-5.417,0-9.808,4.391-9.808,9.808c0,5.417,4.391,9.808,9.808,9.808
		s9.809-4.391,9.809-9.808S105.435,90.133,100.018,90.133z M100.018,108.08c-4.488,0-8.139-3.651-8.139-8.139
		c0-4.488,3.651-8.139,8.139-8.139c4.488,0,8.139,3.651,8.139,8.139C108.157,104.429,104.506,108.08,100.018,108.08z"/>
	<path fill="#666666" d="M88.279,100c0-0.462-0.375-0.837-0.837-0.837h-6.605C80.375,99.163,80,99.538,80,100
		s0.375,0.837,0.837,0.837h6.605C87.904,100.838,88.279,100.462,88.279,100z"/>
	<path fill="#666666" d="M119.163,99.163h-6.605c-0.462,0-0.837,0.375-0.837,0.837c0,0.462,0.375,0.837,0.837,0.837h6.605
		c0.462,0,0.837-0.375,0.837-0.837S119.625,99.163,119.163,99.163z"/>
	<path fill="#666666" d="M100,111.721c-0.462,0-0.837,0.375-0.837,0.838v6.605c0,0.462,0.375,0.837,0.837,0.837
		s0.837-0.375,0.837-0.837v-6.605C100.838,112.096,100.462,111.721,100,111.721z"/>
	<path fill="#666666" d="M100,88.279c0.462,0,0.837-0.375,0.837-0.837v-6.605c0-0.462-0.375-0.837-0.837-0.837
		s-0.837,0.375-0.837,0.838v6.605C99.163,87.904,99.538,88.279,100,88.279z"/>
	<path fill="#666666" d="M90.528,108.288l-4.67,4.67c-0.327,0.327-0.327,0.857,0,1.184c0.327,0.327,0.857,0.327,1.184,0l4.67-4.67
		c0.327-0.327,0.327-0.857,0-1.184C91.385,107.961,90.855,107.961,90.528,108.288z"/>
	<path fill="#666666" d="M109.472,91.712l4.67-4.67c0.327-0.327,0.327-0.857,0-1.184c-0.327-0.327-0.857-0.327-1.184,0l-4.67,4.67
		c-0.327,0.327-0.327,0.857,0,1.184C108.615,92.039,109.145,92.039,109.472,91.712z"/>
	<path fill="#666666" d="M109.472,108.288c-0.327-0.327-0.857-0.327-1.184,0c-0.327,0.327-0.327,0.857,0,1.184l4.67,4.67
		c0.327,0.327,0.857,0.327,1.184,0c0.327-0.327,0.327-0.857,0-1.184L109.472,108.288z"/>
	<path fill="#666666" d="M90.528,91.712c0.327,0.327,0.857,0.327,1.184,0c0.327-0.327,0.327-0.857,0-1.184l-4.67-4.67
		c-0.327-0.327-0.857-0.327-1.184,0c-0.327,0.327-0.327,0.857,0,1.184L90.528,91.712z"/>
</g>
</svg>
